<svg width="51" height="79" viewBox="0 0 51 79" fill="none" xmlns="http://www.w3.org/2000/svg">
<path d="M14.079 78.6147C13.2644 78.2034 12.9813 77.5476 12.9874 76.6352C13.02 72.2466 12.9996 67.8559 13.0017 63.4672C13.0017 61.9969 13.4843 61.5183 14.9669 61.5162C16.1094 61.5142 17.2498 61.4979 18.3923 61.5264C21.0723 61.5896 23.1597 63.3878 23.5915 65.9762C23.9845 68.3324 22.5386 70.6703 20.0826 71.5379C19.5103 71.7395 19.5531 71.88 19.8973 72.2608C20.9196 73.3891 21.9175 74.5376 22.9215 75.6822C24.0008 76.9102 23.9194 77.6637 22.614 78.6168H21.6996C21.3493 78.3744 21.001 78.1423 20.7159 77.8083C19.8647 76.8063 18.9869 75.8288 18.1194 74.8411C17.4759 74.112 16.8282 73.385 16.0503 72.5052C16.0503 73.9613 16.0075 75.2158 16.0646 76.4662C16.1073 77.4132 15.8385 78.1423 14.9934 78.6147H14.079ZM16.0646 66.7012C16.0646 67.2592 16.0666 67.8151 16.0646 68.3731C16.0646 68.6196 16.0809 68.8354 16.4128 68.8273C17.2457 68.8049 18.0888 68.9189 18.9116 68.7071C20.4288 68.3161 21.0703 66.6991 20.1926 65.5078C19.5714 64.6647 17.5288 64.0578 16.3375 64.6219C15.6532 64.9457 16.2092 65.8988 16.0646 66.5505C16.0544 66.5993 16.0646 66.6523 16.0646 66.7012Z" fill="#E5E5E5"/>
<path d="M17.6938 8.46933C19.3169 6.13549 20.8932 3.86479 22.4755 1.59816C22.6486 1.34971 22.8279 1.08904 23.058 0.90168C23.7402 0.347751 24.6668 0.447539 25.2045 1.20308C26.9864 3.70595 28.7439 6.2251 30.481 8.76055C30.9698 9.47536 30.7397 10.3918 30.0615 10.8459C29.3773 11.3041 28.5016 11.1677 27.9741 10.4386C26.7685 8.77277 25.5833 7.09061 24.4265 5.39013C24.0844 4.88915 23.9215 4.84639 23.559 5.37995C22.3167 7.2067 21.0398 9.009 19.7466 10.8011C19.4391 11.2288 19.3597 11.5791 19.5287 12.1126C21.1925 17.3994 17.425 22.8348 11.9102 23.1444C11.5803 23.1627 11.2687 23.1505 11.0548 23.5008C9.48469 26.079 7.79846 28.6002 6.82705 31.49C3.12469 42.4932 10.8288 54.199 22.3982 55.1704C32.1632 55.9911 40.6982 49.1098 41.9364 39.3672C42.4781 35.1048 41.4639 31.1601 39.3032 27.4719C38.2381 25.6533 37.1526 23.849 36.002 22.0834C35.613 21.4867 35.4481 20.8859 35.8472 20.2342C36.395 19.3361 37.7147 19.1854 38.2931 20.0794C40.9792 24.2298 43.8079 28.3028 44.7671 33.3167C46.8606 44.2507 39.7166 55.2641 28.8742 57.7283C17.2071 60.3798 5.92081 53.2867 3.33648 41.5992C2.25714 36.7197 2.92511 32.0113 5.19378 27.5432C5.96561 26.026 6.80872 24.5496 7.72311 23.1159C7.99601 22.6862 8.02655 22.4968 7.50928 22.2218C3.14098 19.9023 1.60749 14.8497 3.94744 10.4855C5.41576 7.74637 7.32396 5.29645 9.08553 2.74879C9.38897 2.31094 9.6863 1.86698 9.99585 1.43321C10.839 0.245925 11.9794 0.262217 12.8286 1.48005C14.3662 3.68762 15.8976 5.9013 17.4332 8.11294C17.4902 8.19644 17.5533 8.27382 17.6999 8.46933H17.6938ZM11.3807 4.74049C10.1852 6.48374 9.04888 8.1272 7.92676 9.78287C7.34432 10.6423 6.75577 11.5078 6.36477 12.4731C5.53184 14.5279 5.77622 16.4728 7.21399 18.1692C8.67212 19.89 10.5783 20.4806 12.7635 19.9348C16.2377 19.0673 17.9036 15.2488 16.2072 12.0271C14.8692 9.48554 13.1056 7.21891 11.3807 4.74049Z" fill="#E5E5E5"/>
<path d="M23.7182 36.6728C23.7182 38.019 23.7854 39.3692 23.7059 40.7092C23.5186 43.8617 20.7713 46.3422 17.6494 46.2526C14.4561 46.1609 11.8535 43.6397 11.7904 40.4954C11.7394 37.9558 11.7415 35.4143 11.7904 32.8768C11.8494 29.7284 14.4745 27.1726 17.6372 27.1094C20.7998 27.0443 23.5165 29.4881 23.7059 32.6365C23.7854 33.9786 23.7202 35.3267 23.7202 36.6728H23.7182ZM14.8207 36.6138C14.8207 37.8051 14.8085 38.9985 14.8247 40.1899C14.8471 41.8904 16.0813 43.1693 17.7105 43.206C19.2888 43.2406 20.643 42.0085 20.6797 40.3589C20.7347 37.9009 20.7347 35.4367 20.6777 32.9786C20.639 31.3372 19.2725 30.1153 17.6901 30.156C16.0976 30.1968 14.8573 31.4655 14.8288 33.113C14.8085 34.28 14.8247 35.4469 14.8247 36.6138H14.8207Z" fill="#E5E5E5"/>
<path d="M42.0381 69.9779C42.0381 67.8436 42.036 65.7114 42.0381 63.5772C42.0401 61.9907 42.5085 61.5162 44.0644 61.5142C45.7913 61.5121 47.5183 61.506 49.2453 61.5162C50.3042 61.5223 50.9702 62.1251 50.962 63.0334C50.9559 63.9254 50.2737 64.5404 49.2249 64.5567C48.0315 64.575 46.8361 64.5771 45.6427 64.5526C45.2069 64.5445 45.0663 64.6972 45.0765 65.1249C45.101 66.0393 45.1071 66.9537 45.0765 67.8681C45.0602 68.3589 45.27 68.4668 45.7099 68.4587C46.8014 68.4403 47.8971 68.4159 48.9846 68.4729C50.1128 68.532 50.793 69.4952 50.4448 70.4687C50.2065 71.1346 49.7075 71.4869 48.9927 71.4931C47.9256 71.5012 46.8585 71.5297 45.7934 71.4869C45.2069 71.4625 45.046 71.6723 45.0725 72.2303C45.1132 73.0673 45.1112 73.9083 45.0725 74.7433C45.0501 75.2647 45.2008 75.4561 45.7486 75.4357C46.8646 75.395 47.9826 75.4194 49.1007 75.4255C50.2533 75.4316 50.9722 76.0365 50.96 76.9774C50.9478 77.908 50.2737 78.4681 49.1394 78.4721C47.3859 78.4762 45.6345 78.4783 43.8811 78.4721C42.5757 78.4681 42.0442 77.9406 42.036 76.6087C42.0238 74.3991 42.032 72.1895 42.032 69.9799L42.0381 69.9779Z" fill="#E5E5E5"/>
<path d="M27.8211 69.9494C27.8211 67.7662 27.817 65.5811 27.8211 63.3979C27.8251 62.0416 28.3546 61.5182 29.7232 61.5142C31.4746 61.5081 33.228 61.506 34.9794 61.5142C36.0506 61.5203 36.7287 62.0885 36.7572 62.9784C36.7878 63.8867 36.0709 64.5404 34.9916 64.5547C33.8226 64.571 32.6557 64.573 31.4868 64.5506C31.055 64.5424 30.8351 64.628 30.8555 65.129C30.8921 66.0413 30.8921 66.9577 30.8555 67.8701C30.8351 68.3731 31.0591 68.4607 31.4909 68.4525C32.558 68.4342 33.6251 68.4138 34.6902 68.4607C35.963 68.5157 36.6799 69.6296 36.1504 70.6662C35.8551 71.2425 35.3582 71.4951 34.7187 71.493C33.6516 71.491 32.5845 71.5114 31.5194 71.4869C31.0449 71.4767 30.831 71.5908 30.8555 72.1203C30.8982 73.0326 30.886 73.9491 30.8595 74.8614C30.8473 75.2931 30.9899 75.4357 31.4216 75.4255C32.5885 75.4011 33.7575 75.4113 34.9264 75.4194C36.0261 75.4276 36.743 76.0243 36.7572 76.9285C36.7735 77.8632 36.0526 78.4619 34.8938 78.464C33.116 78.4681 31.3381 78.4721 29.5602 78.464C28.4096 78.4579 27.8292 77.8856 27.8211 76.7228C27.8068 74.4623 27.817 72.2017 27.817 69.9432L27.8211 69.9494Z" fill="#E5E5E5"/>
<path d="M0.05358 70.0022C0.05358 67.7926 0.049507 65.583 0.05358 63.3754C0.0556165 62.0538 0.578998 61.5222 1.89051 61.5161C3.59099 61.508 5.29351 61.508 6.99399 61.5161C8.08352 61.5222 8.72909 62.0762 8.74742 62.9906C8.76574 63.9212 8.08148 64.5424 6.98584 64.5566C5.89427 64.5709 4.80271 64.577 3.71114 64.5525C3.27533 64.5424 3.06761 64.6279 3.09001 65.1289C3.13074 65.9903 3.1287 66.8558 3.09001 67.7173C3.06964 68.2101 3.21016 68.3893 3.72132 68.369C4.68459 68.3323 5.65193 68.3486 6.6152 68.3628C7.64363 68.3771 8.27495 68.9433 8.29327 69.8332C8.3116 70.7435 7.65992 71.3748 6.61316 71.4013C5.64786 71.4257 4.68255 71.4359 3.71929 71.3972C3.20609 71.3769 3.08186 71.5602 3.09001 72.0448C3.11852 73.5926 3.10426 75.1424 3.09815 76.6921C3.09408 77.8265 2.53201 78.4802 1.57892 78.4843C0.623801 78.4863 0.0556165 77.8346 0.0515435 76.7023C0.045434 74.4683 0.0515435 72.2322 0.0515435 69.9982L0.05358 70.0022Z" fill="#E5E5E5"/>
<path d="M28.3832 45.2526C27.0697 45.2058 26.3936 44.2364 26.7133 43.2609C26.7764 43.0695 26.8681 42.8862 26.9618 42.707C29.3302 38.1085 31.7027 33.5142 34.0692 28.9137C34.3767 28.317 34.7575 27.8486 35.4866 27.8079C36.5761 27.7488 37.3581 28.7549 37.018 29.7915C36.9549 29.9829 36.8612 30.1662 36.7675 30.3454C34.397 34.9418 32.0184 39.5341 29.654 44.1345C29.316 44.7923 28.8863 45.2648 28.3812 45.2526H28.3832Z" fill="#E5E5E5"/>
<path d="M37.3913 42.1998C37.3913 43.4543 36.8679 44.1467 35.9047 44.1732C34.9536 44.1997 34.361 43.5419 34.3427 42.4463C34.3182 40.927 34.8009 40.2061 35.8477 40.2C36.8333 40.1939 37.3913 40.9168 37.3893 42.1998H37.3913Z" fill="#E5E5E5"/>
<path d="M29.1672 31.1969C29.1672 31.4249 29.1937 31.6551 29.1632 31.877C29.0573 32.6326 28.375 33.1967 27.6256 33.1702C26.587 33.1356 26.0697 32.3088 26.139 30.8018C26.1858 29.7835 26.8212 29.1481 27.7539 29.1889C28.7212 29.2316 29.1896 29.8853 29.1693 31.1948L29.1672 31.1969Z" fill="#E5E5E5"/>
<path d="M31.5811 15.043C31.5872 14.2121 32.2389 13.5462 33.0576 13.5319C33.8925 13.5177 34.6114 14.2345 34.6033 15.0695C34.5951 15.8821 33.919 16.5582 33.1064 16.5724C32.247 16.5867 31.575 15.9126 31.5811 15.0451V15.043Z" fill="#E5E5E5"/>
</svg>
