<svg width="93" height="76" viewBox="0 0 93 76" fill="none" xmlns="http://www.w3.org/2000/svg">
<path d="M46.7396 60.7616C45.2924 60.7616 44.125 59.5888 44.125 58.147V45.0472C44.125 43.6054 45.2978 42.4326 46.7396 42.4326C48.1814 42.4326 49.3542 43.6054 49.3542 45.0472V58.147C49.3542 59.5888 48.1814 60.7616 46.7396 60.7616Z" fill="#E5E5E5"/>
<path d="M55.5562 60.8532H37.9212C36.4741 60.8532 35.3066 59.6804 35.3066 58.2386C35.3066 56.7968 36.4794 55.624 37.9212 55.624H55.5562C57.0034 55.624 58.1708 56.7968 58.1708 58.2386C58.1708 59.6804 56.998 60.8532 55.5562 60.8532Z" fill="#E5E5E5"/>
<path d="M46.8087 47.339H46.572C42.5425 47.2744 38.6906 45.5368 35.963 42.5617C33.3592 39.7158 32.1111 36.0629 32.4446 32.2756L33.8595 18.3742C33.994 17.04 35.1184 16.0232 36.458 16.0232H57.0249C58.3699 16.0232 59.4943 17.0346 59.6287 18.3742L61.0383 32.2433C61.3772 36.0629 60.1237 39.7158 57.5199 42.5617C54.7923 45.5368 50.9404 47.2744 46.9109 47.339H46.8087ZM38.8143 21.2524L37.6469 32.7705C37.4425 35.0462 38.2118 37.2788 39.8149 39.0272C41.5634 40.937 44.1457 42.0883 46.7388 42.1098C49.3264 42.0883 51.9087 40.937 53.6572 39.0272C55.2604 37.2788 56.0297 35.0408 55.8252 32.7382L54.6578 21.2524H38.8143Z" fill="#E5E5E5"/>
<path d="M46.6047 75.61C25.9193 75.61 9.08594 58.7766 9.08594 38.0913C9.08594 37.0207 9.13436 35.9663 9.22043 34.9226L14.4281 35.3638C14.3528 36.2676 14.3151 37.1767 14.3151 38.0913C14.3151 55.8984 28.7975 70.3809 46.5993 70.3809C59.2526 70.3809 70.8084 62.9352 76.0322 51.4171L80.7933 53.5797C74.7195 66.9647 61.2969 75.61 46.5939 75.61H46.6047Z" fill="#E5E5E5"/>
<path d="M83.9456 41.9324L78.738 41.4105C78.8456 40.3184 78.9048 39.2156 78.9048 38.0966C78.9048 20.2948 64.417 5.80704 46.6045 5.80704C33.8005 5.80704 22.1855 13.4195 17.0156 25.1905L12.2275 23.087C18.2314 9.41688 31.7239 0.583252 46.6045 0.583252C67.3005 0.583252 84.1339 17.4113 84.1339 38.0966C84.1339 39.3931 84.0694 40.6681 83.9402 41.9324H83.9456Z" fill="#E5E5E5"/>
<path d="M3.25424 45.4293C2.61942 45.4293 1.97922 45.1979 1.4789 44.7353C0.419083 43.7561 0.354525 42.0992 1.33365 41.0393L10.0113 31.6462C11.0011 30.5864 12.6527 30.5272 13.7072 31.501C14.767 32.4801 14.8316 34.1371 13.8524 35.1969L5.17482 44.59C4.65836 45.1495 3.95361 45.4293 3.25424 45.4293Z" fill="#E5E5E5"/>
<path d="M20.6467 45.4293C19.9419 45.4293 19.2426 45.1495 18.7261 44.59L10.0485 35.1969C9.06937 34.1371 9.13393 32.4801 10.1937 31.501C11.2482 30.5272 12.9052 30.5864 13.8897 31.6462L22.5673 41.0393C23.5464 42.0992 23.4818 43.7561 22.422 44.7353C21.9217 45.1979 21.2815 45.4293 20.6467 45.4293Z" fill="#E5E5E5"/>
<path d="M81.5413 45.4292C80.9065 45.4292 80.2663 45.1979 79.766 44.7352C78.7062 43.7561 78.6416 42.0991 79.6208 41.0393L88.2984 31.6516C89.2775 30.5864 90.9399 30.5326 91.9943 31.5063C93.0541 32.4854 93.1187 34.1424 92.1395 35.2022L83.4619 44.59C82.9455 45.1495 82.2461 45.4292 81.5413 45.4292Z" fill="#E5E5E5"/>
<path d="M81.509 45.4292C80.8043 45.4292 80.1049 45.1495 79.5884 44.59L70.9108 35.2022C69.9317 34.1424 69.9962 32.4854 71.0561 31.5063C72.1159 30.5326 73.7675 30.5864 74.752 31.6516L83.4296 41.0393C84.4087 42.0991 84.3442 43.7561 83.2843 44.7352C82.784 45.1979 82.1438 45.4292 81.509 45.4292Z" fill="#E5E5E5"/>
</svg>
