<svg width="29" height="29" viewBox="0 0 29 29" fill="none" xmlns="http://www.w3.org/2000/svg">
<path d="M2 9.71648H27L25.6953 24.0618C25.6248 24.8382 25.2665 25.5602 24.6909 26.0861C24.1154 26.6119 23.364 26.9037 22.5844 26.904H6.41563C5.636 26.9037 4.88464 26.6119 4.30906 26.0861C3.73348 25.5602 3.37524 24.8382 3.30469 24.0618L2 9.71648Z" stroke="white" stroke-width="2.5" stroke-linejoin="round"/>
<path d="M8.24994 12.8415V8.15398C8.24994 6.49637 8.90842 4.90666 10.0805 3.73456C11.2526 2.56246 12.8423 1.90398 14.4999 1.90398C16.1575 1.90398 17.7473 2.56246 18.9194 3.73456C20.0915 4.90666 20.7499 6.49637 20.7499 8.15398V12.8415" stroke="white" stroke-width="2.5" stroke-linecap="round"/>
</svg>
