<svg width="34" height="38" viewBox="0 0 34 38" fill="none" xmlns="http://www.w3.org/2000/svg">
<path d="M26.3149 5.9082C24.8907 4.28242 24.1059 2.19452 24.1065 0.0332031H17.669V25.8665C17.6194 27.2645 17.0292 28.5887 16.0227 29.5602C15.0162 30.5317 13.672 31.0747 12.2732 31.0749C9.31486 31.0749 6.85653 28.6582 6.85653 25.6582C6.85653 22.0749 10.3149 19.3874 13.8774 20.4915V13.9082C6.68986 12.9499 0.398193 18.5332 0.398193 25.6582C0.398193 32.5957 6.14819 37.5332 12.2524 37.5332C18.794 37.5332 24.1065 32.2207 24.1065 25.6582V12.554C26.7169 14.4287 29.851 15.4345 33.0649 15.429V8.99154C33.0649 8.99154 29.1482 9.17904 26.3149 5.9082Z" fill="white"/>
</svg>
