<svg width="43" height="43" viewBox="0 0 43 43" fill="none" xmlns="http://www.w3.org/2000/svg">
<path d="M12.8232 0.866211H30.3232C36.9899 0.866211 42.4065 6.28288 42.4065 12.9495V30.4495C42.4065 33.6542 41.1335 36.7277 38.8674 38.9938C36.6013 41.2598 33.5279 42.5329 30.3232 42.5329H12.8232C6.15654 42.5329 0.739868 37.1162 0.739868 30.4495V12.9495C0.739868 9.74485 2.01293 6.6714 4.27899 4.40534C6.54506 2.13927 9.6185 0.866211 12.8232 0.866211ZM12.4065 5.03288C10.4174 5.03288 8.50976 5.82305 7.10323 7.22958C5.69671 8.6361 4.90653 10.5438 4.90653 12.5329V30.8662C4.90653 35.012 8.2607 38.3662 12.4065 38.3662H30.7399C32.729 38.3662 34.6366 37.576 36.0432 36.1695C37.4497 34.763 38.2399 32.8553 38.2399 30.8662V12.5329C38.2399 8.38704 34.8857 5.03288 30.7399 5.03288H12.4065ZM32.5107 8.15788C33.2014 8.15788 33.8638 8.43224 34.3521 8.92062C34.8405 9.409 35.1149 10.0714 35.1149 10.762C35.1149 11.4527 34.8405 12.1151 34.3521 12.6035C33.8638 13.0918 33.2014 13.3662 32.5107 13.3662C31.82 13.3662 31.1576 13.0918 30.6693 12.6035C30.1809 12.1151 29.9065 11.4527 29.9065 10.762C29.9065 10.0714 30.1809 9.409 30.6693 8.92062C31.1576 8.43224 31.82 8.15788 32.5107 8.15788ZM21.5732 11.2829C24.3359 11.2829 26.9854 12.3803 28.9389 14.3338C30.8924 16.2874 31.9899 18.9369 31.9899 21.6995C31.9899 24.4622 30.8924 27.1117 28.9389 29.0652C26.9854 31.0187 24.3359 32.1162 21.5732 32.1162C18.8105 32.1162 16.161 31.0187 14.2075 29.0652C12.254 27.1117 11.1565 24.4622 11.1565 21.6995C11.1565 18.9369 12.254 16.2874 14.2075 14.3338C16.161 12.3803 18.8105 11.2829 21.5732 11.2829ZM21.5732 15.4495C19.9156 15.4495 18.3259 16.108 17.1538 17.2801C15.9817 18.4522 15.3232 20.0419 15.3232 21.6995C15.3232 23.3571 15.9817 24.9469 17.1538 26.119C18.3259 27.2911 19.9156 27.9495 21.5732 27.9495C23.2308 27.9495 24.8205 27.2911 25.9926 26.119C27.1647 24.9469 27.8232 23.3571 27.8232 21.6995C27.8232 20.0419 27.1647 18.4522 25.9926 17.2801C24.8205 16.108 23.2308 15.4495 21.5732 15.4495Z" fill="white"/>
</svg>
