<svg width="78" height="91" viewBox="0 0 78 91" fill="none" xmlns="http://www.w3.org/2000/svg">
<path d="M53.3341 21.6507C57.1078 25.0053 58.1842 29.4172 58.2629 34.2205C58.2629 34.346 58.2501 34.4715 58.2374 34.6949C57.4609 34.2162 56.7653 33.7546 56.04 33.3462C53.2852 31.7954 50.322 30.6765 47.5247 29.213C46.1802 28.511 44.8954 27.7197 43.6786 26.8135C40.4452 24.4033 38.7264 21.1125 38.218 17.1856C37.4799 11.4953 38.318 6.02192 40.7494 0.812328C41.1323 -0.00665583 41.1472 0.00823477 41.8088 0.644277C43.7573 2.51624 46.1483 3.67345 48.5585 4.79663C50.7453 5.8177 52.9427 6.81112 55.0678 7.96408C60.4688 10.8975 63.0981 15.4902 63.3321 21.5486C63.498 25.8201 62.8492 29.9618 61.3027 33.9546C61.2113 34.1886 61.1942 34.4715 60.8518 34.68C60.6539 28.9981 58.5926 24.3948 53.5022 21.506C53.3703 21.338 53.2129 21.3401 53.0406 21.4337C53.1384 21.506 53.2341 21.5784 53.332 21.6507H53.3341Z" fill="#E5E5E5"/>
<path d="M7.75388 30.8381C7.91555 31.3401 7.87726 31.8145 7.74324 32.3101C7.40501 33.5439 6.9583 34.7267 6.29034 35.8265C5.87553 36.5072 5.65005 37.2794 5.33309 38.0069C4.23331 40.5213 3.85254 43.2803 2.63576 45.7542C2.37199 46.2924 2.52089 46.9412 2.48473 47.5305C2.30604 50.4107 2.48473 53.2783 2.85487 56.1479C3.02079 57.4434 3.49091 58.6453 3.6696 59.9131C3.83339 61.0767 4.41838 62.1743 4.20991 63.3975C4.19077 63.5081 4.30138 63.6421 4.35669 63.7613C5.20971 65.6162 6.17973 67.4286 6.87959 69.341C7.43479 70.8556 8.4431 72.0426 9.21954 73.3934C10.1023 74.9292 11.7127 75.8631 12.5593 77.3713C13.1698 78.4604 14.461 78.5902 15.0588 79.5793C15.1332 79.7006 15.3864 79.7453 15.2758 79.941C14.695 80.9535 15.6523 80.9344 16.1309 81.1577C16.5627 81.3577 17.1201 81.1492 17.3881 81.8491C17.5009 82.1405 18.2709 81.9278 18.7134 82.2682C19.0686 82.5426 19.4983 82.6043 19.6685 83.1658C19.7791 83.5275 20.3045 83.7806 20.7704 83.7615C21.6936 83.7232 22.3743 84.3252 23.1657 84.6251C23.2954 84.6741 23.4273 84.8698 23.5975 84.94C25.2716 85.6249 26.967 86.2695 28.7114 86.7353C29.5006 86.9459 30.2919 87.0332 30.8981 87.6586C31.0556 87.8202 31.3066 87.6649 31.5129 87.6543C32.0064 87.6309 32.5638 87.3246 32.9041 87.9776C32.9211 88.0117 33.0084 88.0436 33.0403 88.0287C34.2592 87.4799 35.4121 88.3712 36.6119 88.1861C36.8501 88.15 37.0203 88.2946 37.1969 88.3839C37.9861 88.7796 38.754 88.5243 39.5347 88.3754C39.7602 88.3329 40.175 88.0734 40.0878 88.7073C40.0623 88.8924 40.3856 88.8647 40.5536 88.7817C42.1576 87.9904 43.8572 87.9925 45.5888 88.0776C46.0206 88.0989 46.4759 87.9989 46.9439 87.7075C47.314 87.4756 47.9394 86.9949 48.669 87.4863C48.9796 87.6969 49.6816 87.3267 50.207 87.2204C50.0624 86.9651 49.99 86.7715 50.4219 86.746C50.7324 86.7268 51.043 86.6354 51.343 86.546C51.5855 86.4737 51.8535 86.4354 52.0258 86.2142C52.3513 86.4801 52.4981 86.1567 52.6789 86.0014C53.4468 85.342 54.5976 85.4569 55.3209 84.6975C55.3613 84.6549 55.5889 84.7187 55.6698 84.7974C56.0527 85.1654 56.2888 84.7634 56.293 84.5719C56.3037 84.072 56.6738 83.9699 56.9759 83.804C58.0182 83.236 58.9478 82.5022 59.9327 81.8491C60.271 81.6236 60.5943 81.196 61.1176 81.5215C61.2176 81.5832 61.3835 81.5172 61.4048 81.3449C61.4856 80.6706 61.8111 80.243 62.6194 79.9282C62.9172 79.8133 63.0598 79.6304 63.2512 79.4007C64.0298 78.4604 64.8551 77.5457 65.94 76.948C66.2144 76.7969 66.2931 76.5948 66.4038 76.3608C66.9292 75.2525 67.5631 74.2017 68.4778 73.3806C68.8969 73.0041 69.4095 72.7871 69.3585 72.0851C69.3415 71.8554 69.5414 71.6129 69.8839 71.6256C70.2264 71.6384 70.0775 71.9128 70.1498 72.0681C70.2115 72.1978 70.1711 72.4574 70.3817 72.3999C70.5391 72.3574 70.7582 72.4084 70.8263 72.3255C70.9624 72.1596 70.8071 72.0106 70.688 71.8532C70.5178 71.6235 70.4306 71.3491 70.6199 71.0619C70.6944 70.9492 70.8114 69.5643 70.7837 69.3963C70.7433 69.1538 70.9177 68.9793 71.0496 68.8517C71.2304 68.6752 71.2602 69.1197 71.5006 69.024C71.4878 68.0242 72.2302 67.3329 72.5983 66.4777C72.6855 66.2756 72.8727 66.2331 72.5493 65.9629C72.2962 65.7523 72.5961 64.8355 72.8025 64.8164C73.9639 64.7164 73.1279 64.225 73.0343 63.8868C73.5917 63.9591 73.8427 63.7315 73.7385 63.172C73.5385 62.0871 73.7065 61.8893 74.717 62.002C74.8723 62.019 75.0552 62.0042 75.1297 61.8446C75.2041 61.6851 75.1658 61.5425 74.951 61.4957C74.6064 61.4192 74.6361 61.0256 74.4192 60.8427C74.1384 60.6066 74.2383 60.4194 74.5 60.3045C75.0956 60.0429 75.1275 59.7918 74.5404 59.477C74.4 59.4026 74.3277 59.2388 74.3724 59.0622C74.417 58.8814 74.5872 58.9537 74.7 58.9154C74.8255 58.8729 74.951 58.8452 75.0084 59.0367C75.0531 59.1834 74.8361 59.5919 75.2467 59.4047C75.536 59.2728 75.487 58.658 75.3956 58.658C74.6255 58.6623 75.3488 58.1581 75.185 58.0581C75.0212 57.8348 74.4958 58.6516 74.5957 57.7008C74.6638 57.0498 74.6213 56.7754 75.3679 56.7031C75.7402 56.6669 75.9338 56.0437 76.3996 55.8969C76.54 55.8522 76.4868 55.6522 76.389 55.5565C75.904 55.0779 75.8274 54.4993 76.0614 53.8718C76.1741 53.5633 76.0614 53.1783 76.1358 52.8486C76.2826 52.2125 75.5657 51.4425 76.4337 50.9192C76.4656 50.9 76.4592 50.7554 76.4251 50.6937C75.8678 49.6428 76.2294 48.4346 75.8402 47.356C75.6487 46.8221 76.1997 46.3754 76.004 45.7904C75.8763 45.4054 75.6423 44.9225 76.1039 44.4928C76.2635 44.3439 76.0742 43.9674 75.9082 43.8546C75.1467 43.3356 75.37 42.5145 75.219 41.8082C75.1871 41.6636 75.2637 41.5147 75.3871 41.5083C75.4849 41.504 75.5934 41.6359 75.687 41.7189C75.8189 41.8359 75.804 41.8933 75.6274 41.9784C75.3849 42.0954 75.4062 42.4315 75.5934 42.4485C76.5868 42.54 76.4677 43.4164 76.5975 43.9759C76.7315 44.5524 76.8931 45.1267 77.1548 45.8095C76.8676 45.6415 76.7251 45.5436 76.5698 45.4734C76.4719 45.4288 76.3486 45.4543 76.3103 45.5692C76.2911 45.6287 76.323 45.7479 76.3698 45.7798C77.5058 46.5583 77.4377 47.773 77.4547 48.9196C77.476 50.3725 77.793 51.8105 77.6717 53.2655C77.5143 55.1396 77.6674 57.0626 77.1931 58.875C76.7783 60.4555 76.7506 62.0829 76.3188 63.6485C76.1741 64.1697 75.9806 64.6972 75.6487 65.0759C75.2169 65.5673 75.1722 66.0863 75.1701 66.6607C75.1701 66.9585 75.1041 67.2435 74.9552 67.5009C73.8172 69.4729 73.1428 71.6809 71.8452 73.5699C70.6391 75.3291 69.4372 77.0926 67.9311 78.6115C67.7014 78.8433 67.0526 78.6455 67.0462 79.2092C67.0398 79.6878 66.742 79.958 66.4463 80.1771C65.4954 80.8833 64.8339 81.915 63.7937 82.5043C62.3067 83.3445 61.2218 84.7038 59.6923 85.5335C58.7351 86.0525 57.663 86.412 56.8163 87.0332C54.7848 88.5243 52.3151 88.7435 50.0815 89.622C47.9904 90.4452 45.7249 90.6558 43.4637 90.86C41.6407 91.026 39.8219 91.0281 38.0393 90.8579C35.2313 90.5899 32.4106 90.3304 29.6388 89.7624C29.4623 89.7262 29.2027 89.656 29.1496 89.5305C28.8411 88.7988 27.9753 88.6818 27.5073 88.5669C25.9268 88.1776 24.5399 87.1821 22.8764 87.1119C22.6317 87.1012 22.4126 87.0502 22.1893 86.9438C13.6484 82.9021 7.43692 76.6055 3.73341 67.8838C3.38242 67.0585 3.03143 66.2246 3.05695 65.2865C3.06334 65.0333 2.96548 64.7568 2.84423 64.5271C1.88485 62.6955 1.41899 60.7108 1.0999 58.6963C0.772308 56.6371 0.200083 54.6205 0.346862 52.4848C0.572349 49.1897 1.20414 45.9776 1.87209 42.7485C2.79318 38.2983 5.54581 34.7884 7.57306 30.9062C7.59008 30.8743 7.65815 30.87 7.75813 30.8296L7.75388 30.8381Z" fill="#E5E5E5"/>
<path d="M16.1523 52.1616C16.1523 47.169 16.1523 42.1743 16.1523 37.1817C16.1523 36.1117 16.3778 35.8947 17.4648 35.8926C17.8903 35.8926 18.3157 35.8926 18.7391 35.8926C19.8665 35.8968 20.0601 36.0947 20.0664 37.2561C20.0686 37.8666 20.0664 38.4772 20.0664 39.0898C20.0664 41.3213 20.0664 43.5527 20.0664 45.7821C20.0664 46.6479 20.0728 46.6542 20.8195 46.265C22.8212 45.2269 24.9293 44.9035 27.1501 45.3183C30.1474 45.8778 32.1959 48.1369 32.398 51.3852C32.6277 55.0951 32.632 58.822 32.4001 62.5319C32.2023 65.7206 30.0474 67.8223 26.7864 68.2733C26.0227 68.3796 25.2569 68.4328 24.4847 68.4286C22.2001 68.4201 19.9154 68.4264 17.6329 68.4264C16.314 68.4264 16.1523 68.269 16.1523 66.9842C16.1523 62.0448 16.1523 57.1032 16.1523 52.1638V52.1616ZM20.0686 57.3414C20.0686 59.6516 20.0664 61.9639 20.0728 64.2741C20.0728 64.5932 19.9452 64.9952 20.5302 64.9825C22.1235 64.9463 23.721 65.0122 25.3079 64.8974C27.2756 64.7548 28.5116 63.5338 28.5562 61.6257C28.6286 58.5199 28.6562 55.4078 28.5477 52.3042C28.4584 49.7876 26.8544 48.4858 24.3337 48.6113C23.0361 48.6751 21.8576 49.1452 20.6727 49.6153C20.209 49.7983 20.0537 50.0663 20.0579 50.5683C20.0856 52.8253 20.0707 55.0845 20.0686 57.3414Z" fill="#E5E5E5"/>
<path d="M48.5964 56.9585C48.6389 55.1801 48.4794 53.3932 48.724 51.6255C49.258 47.7518 51.9574 45.3736 56.0034 45.1609C57.0415 45.1055 58.0753 45.1417 59.0943 45.3651C62.4723 46.1011 64.4677 48.1645 64.8335 51.885C65.1675 55.2865 65.1952 58.7411 64.8144 62.1425C64.357 66.2268 61.7384 68.4817 57.6222 68.7306C56.5841 68.7944 55.5503 68.7476 54.5314 68.5327C51.081 67.801 48.9538 65.3419 48.6751 61.8171C48.5475 60.1983 48.6432 58.5794 48.5964 56.9606V56.9585ZM61.0024 56.9096C61.0024 56.9096 60.9833 56.9096 60.9748 56.9096C60.9748 55.3716 61.0577 53.8272 60.9513 52.2956C60.8471 50.7916 60.1983 49.5366 58.6858 48.9282C55.6141 47.6901 52.7402 49.3643 52.5722 52.6487C52.4254 55.5056 52.4467 58.3816 52.5658 61.2427C52.6764 63.8975 54.257 65.2972 56.8032 65.2887C59.3687 65.2802 60.8429 63.8847 60.9896 61.2066C61.0683 59.7792 61.0045 58.3433 61.0045 56.9096H61.0024Z" fill="#E5E5E5"/>
<path d="M38.6387 56.8968C38.6387 53.523 38.6387 50.1513 38.6387 46.7775C38.6387 45.6863 38.8578 45.465 39.9256 45.4629C40.4575 45.4629 40.9893 45.4735 41.5189 45.4608C42.2231 45.4438 42.5358 45.8096 42.5549 46.4797C42.5592 46.6116 42.5549 46.7456 42.5549 46.8775C42.5549 53.5719 42.5549 60.2642 42.5549 66.9586C42.5549 68.2796 42.4017 68.4306 41.0999 68.4327C40.6744 68.4327 40.249 68.4327 39.8257 68.4327C38.9003 68.4242 38.6429 68.1775 38.6408 67.2585C38.6365 63.806 38.6408 60.3535 38.6408 56.8989L38.6387 56.8968Z" fill="#E5E5E5"/>
<path d="M62.0391 36.4797C63.1963 35.6819 63.9472 34.6183 64.6938 33.5483C64.7853 33.4186 64.8789 33.2888 64.9683 33.1569C67.3231 29.6555 69.6099 28.3409 74.9492 30.4C75.7852 30.7234 76.5829 31.1467 77.2764 31.8125C76.0703 32.6591 75.2938 33.8334 74.4876 34.9842C74.3961 35.114 74.3025 35.2437 74.2089 35.3735C73.0198 37.0136 71.735 38.558 69.529 38.7515C66.7615 38.9962 64.3131 38.1219 62.0391 36.4818V36.4797Z" fill="#E5E5E5"/>
<path d="M40.6775 35.8926C41.9297 35.8926 42.5565 36.5307 42.5579 37.8071C42.5579 39.1402 41.9028 39.806 40.5924 39.8046C39.282 39.8031 38.6318 39.1628 38.6417 37.8837C38.6417 36.5563 39.3203 35.8926 40.6775 35.8926Z" fill="#E5E5E5"/>
</svg>
