<svg width="83" height="83" viewBox="0 0 83 83" fill="none" xmlns="http://www.w3.org/2000/svg">
<path fill-rule="evenodd" clip-rule="evenodd" d="M66.2293 69.3622C59.4393 75.4622 50.6193 78.8222 41.4993 78.8122C21.0093 78.8122 4.3993 62.2022 4.3993 41.7122C4.3993 31.9522 8.1693 23.0622 14.3393 16.4422L20.4593 22.5622C20.8493 22.9422 21.3693 23.1422 21.9093 23.1422C22.4493 23.1422 22.9693 22.9222 23.3493 22.5422C23.7293 22.1622 23.9493 21.6422 23.9493 21.1022C23.9493 20.5622 23.7493 20.0422 23.3693 19.6522L17.3093 13.5922C24.0293 7.79219 32.6193 4.61219 41.4993 4.62219C61.9893 4.62219 78.5993 21.2322 78.5993 41.7222C78.5993 51.2222 75.0293 59.8922 69.1493 66.4522L57.2093 54.5122C57.7293 53.0022 57.9893 51.4222 57.9893 49.8322V45.8422C57.9893 45.3922 57.8393 44.9622 57.5793 44.6022C57.3093 44.2422 56.9293 43.9822 56.4993 43.8622C57.4793 41.8722 57.9893 39.6922 57.9893 37.4722V33.4722C57.9893 33.1222 57.8993 32.7822 57.7393 32.4822C57.5693 32.1822 57.3393 31.9222 57.0393 31.7322C56.7493 31.5422 56.4193 31.4322 56.0693 31.4122C55.7193 31.3922 55.3793 31.4522 55.0693 31.5922L54.9493 31.6522C55.5993 29.9822 55.9293 28.2122 55.9293 26.4222V23.1622C55.9293 22.8322 55.8493 22.5022 55.6893 22.2022C55.5293 21.9022 55.3093 21.6522 55.0293 21.4622C54.7593 21.2722 54.4393 21.1522 54.1093 21.1122C53.7793 21.0722 53.4393 21.1122 53.1293 21.2322L48.7293 22.9122C48.5593 22.9822 48.3893 23.0422 48.2093 23.1222C48.1293 19.4122 46.7693 15.8522 44.3593 13.0422L43.0593 11.5222C42.8693 11.2922 42.6293 11.1122 42.3593 10.9922C42.0893 10.8722 41.7993 10.8022 41.4993 10.8022C41.1993 10.8022 40.9093 10.8622 40.6393 10.9922C40.3693 11.1122 40.1293 11.3022 39.9393 11.5222L38.6393 13.0422C36.2293 15.8622 34.8693 19.4222 34.7893 23.1322C34.6193 23.0622 34.4493 22.9922 34.2793 22.9222L29.8793 21.2422C29.5693 21.1222 29.2293 21.0822 28.8993 21.1222C28.5693 21.1622 28.2493 21.2822 27.9793 21.4722C27.6993 21.6622 27.4793 21.9122 27.3193 22.2122C27.1593 22.5122 27.0793 22.8322 27.0793 23.1722V26.4322C27.0793 28.2622 27.4193 30.0222 28.0593 31.6622L27.9393 31.6022C27.6293 31.4622 27.2793 31.3922 26.9393 31.4222C26.5993 31.4422 26.2593 31.5522 25.9693 31.7422C25.6793 31.9322 25.4393 32.1822 25.2693 32.4922C25.0993 32.7922 25.0193 33.1322 25.0193 33.4822V37.4822C25.0193 39.7022 25.5293 41.8822 26.5093 43.8722C26.0793 43.9922 25.6993 44.2522 25.4293 44.6122C25.1593 44.9722 25.0193 45.4022 25.0193 45.8522V49.8522C25.0193 52.6122 25.8093 55.3122 27.2993 57.6422C28.7893 59.9622 30.9193 61.8122 33.4193 62.9622L39.4393 65.7322V70.5922H43.5593V65.7322L49.5793 62.9722C51.8193 61.9422 53.7593 60.3622 55.2093 58.3722L66.2293 69.3922V69.3622ZM82.7193 41.7122C82.7193 64.4822 64.2693 82.9322 41.4993 82.9322C18.7293 82.9322 0.279297 64.4822 0.279297 41.7122C0.279297 18.9422 18.7293 0.492188 41.4993 0.492188C64.2693 0.492188 82.7193 18.9422 82.7193 41.7122ZM41.4993 16.0322C42.6093 17.4222 43.3893 19.0422 43.7893 20.7722C44.1893 22.5022 44.1993 24.3022 43.8093 26.0422C42.9193 26.9122 42.1393 27.8922 41.4993 28.9522C40.8593 27.8822 40.0793 26.9022 39.1893 26.0422C38.7993 24.3022 38.8093 22.5022 39.2093 20.7722C39.6093 19.0422 40.3893 17.4222 41.4993 16.0322ZM39.4393 36.6622V36.4022C39.4393 34.3122 38.8093 32.2722 37.6193 30.5522C36.4293 28.8322 34.7493 27.5122 32.7993 26.7722L31.1893 26.1622V26.4222C31.1893 28.5122 31.8193 30.5522 33.0093 32.2722C34.1993 33.9922 35.8693 35.3122 37.8293 36.0522L39.4393 36.6622ZM43.5593 36.6622L45.1693 36.0522C47.1193 35.3122 48.7993 33.9922 49.9893 32.2722C51.1793 30.5522 51.8093 28.5122 51.8093 26.4222V26.1622L50.1993 26.7722C48.2493 27.5122 46.5693 28.8322 45.3793 30.5522C44.1893 32.2722 43.5593 34.3122 43.5593 36.4022V36.6622ZM43.5593 46.0522C43.5593 43.2222 45.2093 40.6522 47.7793 39.4722L53.8693 36.6822V37.4622C53.8693 39.4322 53.2993 41.3622 52.2393 43.0222C51.1793 44.6822 49.6593 46.0022 47.8693 46.8222L43.5693 48.7922V46.0422L43.5593 46.0522ZM33.4393 38.6522C35.2293 39.4722 36.7493 40.7922 37.8093 42.4522C38.8693 44.1122 39.4393 46.0422 39.4393 48.0122V48.7922L35.1393 46.8122C33.3493 45.9922 31.8293 44.6722 30.7693 43.0122C29.7093 41.3522 29.1393 39.4222 29.1393 37.4522V36.6722L33.4393 38.6422V38.6522ZM39.4393 61.1722V60.3922C39.4393 58.4222 38.8693 56.4922 37.8093 54.8322C36.7493 53.1722 35.2293 51.8522 33.4393 51.0322L29.1393 49.0622V49.8422C29.1393 51.8122 29.7093 53.7422 30.7693 55.4022C31.8293 57.0622 33.3493 58.3822 35.1393 59.2022L39.4393 61.1722ZM43.5593 61.1722L47.8593 59.2022C49.6493 58.3822 51.1693 57.0622 52.2293 55.4022C53.2893 53.7422 53.8593 51.8122 53.8593 49.8422V49.0622L47.7693 51.8622C46.5093 52.4422 45.4493 53.3622 44.6993 54.5322C43.9493 55.7022 43.5593 57.0522 43.5593 58.4422V61.1922V61.1722Z" fill="#E5E5E5"/>
</svg>
