<svg width="20" height="12" viewBox="0 0 20 12" fill="none" xmlns="http://www.w3.org/2000/svg">
<path d="M19.2289 1.16858C18.9596 0.899311 18.5943 0.748047 18.2135 0.748047C17.8326 0.748047 17.4674 0.899311 17.198 1.16858L10.0883 8.27824L2.97867 1.16857C2.70778 0.906942 2.34497 0.76217 1.96838 0.765443C1.59178 0.768715 1.23154 0.919769 0.96524 1.18607C0.69894 1.45237 0.547888 1.81261 0.544615 2.1892C0.541342 2.5658 0.686113 2.92861 0.947746 3.1995L9.07288 11.3246C9.34222 11.5939 9.70748 11.7452 10.0883 11.7452C10.4692 11.7452 10.8345 11.5939 11.1038 11.3246L19.2289 3.1995C19.4982 2.93015 19.6495 2.56489 19.6495 2.18404C19.6495 1.80318 19.4982 1.43792 19.2289 1.16858Z" fill="black"/>
</svg>
