<svg width="69" height="69" viewBox="0 0 69 69" fill="none" xmlns="http://www.w3.org/2000/svg">
<path d="M57.145 42.1255H42.065V57.2055H26.985V42.1255H11.905V27.0455H26.985V11.9655H42.065V27.0455H57.145M60.915 0.645508H8.12496C3.94496 0.645508 0.584961 4.00551 0.584961 8.18551V60.9755C0.584961 62.9755 1.37496 64.8955 2.79496 66.3055C4.20496 67.7155 6.12496 68.5155 8.12496 68.5155H60.915C62.915 68.5155 64.835 67.7255 66.245 66.3055C67.655 64.8955 68.455 62.9755 68.455 60.9755V8.18551C68.455 6.18551 67.665 4.26551 66.245 2.85551C64.835 1.44551 62.915 0.645508 60.915 0.645508Z" fill="#E5E5E5"/>
</svg>
